<svg width="65" height="54" viewBox="0 0 65 54" fill="none" xmlns="http://www.w3.org/2000/svg">
<path d="M51.4847 23.3705C50.1676 22.9151 49.0477 22.0225 48.3127 20.8423C47.4604 18.725 45.8958 16.9687 43.8867 15.8743C43.3478 15.489 42.9088 14.9814 42.6061 14.3935C42.3034 13.8056 42.1456 13.1544 42.1458 12.4936V5.27676C42.1645 4.92573 42.3169 4.595 42.5718 4.35196C42.8267 4.10892 43.165 3.97182 43.5178 3.96858H46.0701C46.2216 3.96485 46.3658 3.90326 46.4729 3.79656C46.58 3.68985 46.6418 3.54618 46.6455 3.39532V0.573258C46.6455 0.421226 46.585 0.275398 46.4771 0.167896C46.3691 0.0603929 46.2227 0 46.0701 0H43.5178C42.0961 -5.34512e-06 40.7324 0.561655 39.7258 1.56184C38.7191 2.56202 38.1515 3.9191 38.1476 5.33552V12.3613C38.0001 13.596 37.1739 14.2574 35.5953 14.3309H35.6838L34.8134 14.4485V10.9062C34.8134 10.3605 34.5957 9.83704 34.2084 9.45114C33.821 9.06523 33.2957 8.84845 32.7479 8.84845C32.2001 8.84845 31.6747 9.06523 31.2874 9.45114C30.9 9.83704 30.6824 10.3605 30.6824 10.9062V15.9037C28.9854 16.8324 27.5847 18.2178 26.64 19.9016C26.2606 20.4056 25.7682 20.8143 25.2021 21.095C24.636 21.3757 24.0119 21.5207 23.3795 21.5184H7.44592C5.70268 21.5995 4.05777 22.3464 2.85288 23.6042C1.64799 24.8619 0.975755 26.5337 0.975755 28.2724C0.975755 30.011 1.64799 31.6828 2.85288 32.9405C4.05777 34.1982 5.70268 34.9452 7.44592 35.0263H9.83599C9.83599 35.0263 12.0342 35.2468 12.0342 37.2457C12.1691 38.9218 12.6728 40.5477 13.5096 42.008H6.59024C6.80466 41.5788 6.91579 41.1058 6.91482 40.6263C6.91448 40.0116 6.7325 39.4105 6.39155 38.8981C6.05061 38.3857 5.5658 37.9847 4.99758 37.745C4.42936 37.5053 3.80287 37.4377 3.19627 37.5503C2.58968 37.663 2.02982 37.9511 1.5865 38.3787C1.14318 38.8064 0.836027 39.3546 0.703362 39.9549C0.570697 40.5553 0.618416 41.1813 0.840504 41.7549C1.06259 42.3284 1.44926 42.8241 1.95227 43.1802C2.45528 43.5362 3.05235 43.7369 3.66907 43.7571H14.6603C18.8945 49.416 27.9383 53.5021 38.3394 53.5021C52.8567 53.5021 64.6298 45.5797 64.6298 36.5696C64.5856 30.5285 59.3187 25.8251 51.4847 23.3705ZM24.3385 39.4211C23.5325 39.4211 22.7447 39.1828 22.0748 38.7363C21.4048 38.2899 20.8829 37.6555 20.5752 36.9133C20.2674 36.1712 20.1876 35.3548 20.3459 34.5675C20.5043 33.7801 20.8935 33.0573 21.4645 32.4906C22.0354 31.9238 22.7624 31.5386 23.5532 31.3837C24.344 31.2289 25.1632 31.3113 25.907 31.6206C26.6508 31.9299 27.2857 32.4522 27.7313 33.1212C28.177 33.7903 28.4134 34.576 28.4104 35.379C28.4104 35.9111 28.305 36.4379 28.1002 36.9292C27.8954 37.4206 27.5952 37.8669 27.2169 38.2424C26.8386 38.6179 26.3896 38.9153 25.8956 39.1176C25.4017 39.3199 24.8725 39.423 24.3385 39.4211ZM36.9526 39.4211C36.1466 39.4211 35.3588 39.1828 34.6888 38.7363C34.0189 38.2899 33.497 37.6555 33.1892 36.9133C32.8815 36.1712 32.8017 35.3548 32.96 34.5675C33.1183 33.7801 33.5076 33.0573 34.0786 32.4906C34.6495 31.9238 35.3764 31.5386 36.1673 31.3837C36.9581 31.2289 37.7773 31.3113 38.5211 31.6206C39.2649 31.9299 39.8998 32.4522 40.3455 33.1212C40.7911 33.7903 41.0274 34.576 41.0245 35.379C41.0206 36.4524 40.5899 37.4805 39.8267 38.2381C39.0635 38.9957 38.03 39.4211 36.9526 39.4211ZM49.5667 39.4211C48.7601 39.424 47.9708 39.1882 47.2989 38.7435C46.627 38.2989 46.1029 37.6654 45.7929 36.9236C45.4829 36.1817 45.4009 35.3648 45.5576 34.5765C45.7142 33.7882 46.1024 33.064 46.6727 32.4958C47.2431 31.9276 47.9699 31.5409 48.7612 31.3848C49.5524 31.2288 50.3724 31.3103 51.117 31.6192C51.8616 31.9281 52.4975 32.4503 52.9438 33.1197C53.3901 33.7891 53.6267 34.5754 53.6238 35.379C53.6199 36.4498 53.1913 37.4757 52.4312 38.2329C51.6712 38.9901 50.6415 39.4172 49.5667 39.4211Z" fill="#8E8E8E"/>
<path d="M6.91465 47.8873C6.91756 48.5065 6.7361 49.1126 6.39323 49.6291C6.05036 50.1455 5.56149 50.5491 4.9884 50.7887C4.41532 51.0284 3.78377 51.0933 3.17364 50.9754C2.5635 50.8574 2.00216 50.5619 1.56062 50.1261C1.11908 49.6903 0.817174 49.1339 0.69306 48.5272C0.568946 47.9204 0.628197 47.2906 0.86334 46.7174C1.09848 46.1443 1.49895 45.6535 2.0141 45.307C2.52924 44.9606 3.1359 44.7742 3.75741 44.7712C4.58967 44.7712 5.3883 45.0985 5.97955 45.6821C6.5708 46.2656 6.90687 47.0582 6.91465 47.8873Z" fill="#8E8E8E"/>
</svg>
